<mxfile host="app.diagrams.net" modified="2024-06-16T18:23:12.566Z" agent="Mozilla/5.0 (Windows NT 10.0; Win64; x64) AppleWebKit/537.36 (KHTML, like Gecko) Chrome/126.0.0.0 Safari/537.36" etag="BNJIW9X_YdI6faZTd4bo" version="24.4.4" type="device">
  <diagram name="Page-1" id="-f66gobhjtPbvFbF2lSz">
    <mxGraphModel dx="632" dy="535" grid="1" gridSize="10" guides="1" tooltips="1" connect="1" arrows="1" fold="1" page="1" pageScale="1" pageWidth="827" pageHeight="1169" math="0" shadow="0">
      <root>
        <mxCell id="0" />
        <mxCell id="1" parent="0" />
        <mxCell id="OHn8yyxWZ7koiiCOsBAS-1" value="Student" style="swimlane;fontStyle=1;align=center;verticalAlign=top;childLayout=stackLayout;horizontal=1;startSize=26;horizontalStack=0;resizeParent=1;resizeParentMax=0;resizeLast=0;collapsible=1;marginBottom=0;whiteSpace=wrap;html=1;" vertex="1" parent="1">
          <mxGeometry x="250" y="40" width="150" height="200" as="geometry">
            <mxRectangle x="250" y="40" width="80" height="30" as="alternateBounds" />
          </mxGeometry>
        </mxCell>
        <mxCell id="OHn8yyxWZ7koiiCOsBAS-2" value="Student_id --&amp;gt;primary key" style="text;strokeColor=none;fillColor=none;align=left;verticalAlign=top;spacingLeft=4;spacingRight=4;overflow=hidden;rotatable=0;points=[[0,0.5],[1,0.5]];portConstraint=eastwest;whiteSpace=wrap;html=1;" vertex="1" parent="OHn8yyxWZ7koiiCOsBAS-1">
          <mxGeometry y="26" width="150" height="26" as="geometry" />
        </mxCell>
        <mxCell id="OHn8yyxWZ7koiiCOsBAS-3" value="" style="line;strokeWidth=1;fillColor=none;align=left;verticalAlign=middle;spacingTop=-1;spacingLeft=3;spacingRight=3;rotatable=0;labelPosition=right;points=[];portConstraint=eastwest;strokeColor=inherit;" vertex="1" parent="OHn8yyxWZ7koiiCOsBAS-1">
          <mxGeometry y="52" width="150" height="8" as="geometry" />
        </mxCell>
        <mxCell id="OHn8yyxWZ7koiiCOsBAS-4" value="Student Name&lt;div&gt;List of enrolled Subjects&amp;nbsp; One-to-Many --&amp;gt; Subject&amp;nbsp;&lt;/div&gt;&lt;div style=&quot;text-align: center;&quot;&gt;(Enrollment)&lt;/div&gt;&lt;div&gt;&lt;hr&gt;List of registered Exams&lt;/div&gt;&lt;div&gt;one-to-many --&amp;gt; Exam&lt;/div&gt;&lt;div style=&quot;text-align: center;&quot;&gt;(Register)&lt;/div&gt;" style="text;strokeColor=none;fillColor=none;align=left;verticalAlign=top;spacingLeft=4;spacingRight=4;overflow=hidden;rotatable=0;points=[[0,0.5],[1,0.5]];portConstraint=eastwest;whiteSpace=wrap;html=1;" vertex="1" parent="OHn8yyxWZ7koiiCOsBAS-1">
          <mxGeometry y="60" width="150" height="140" as="geometry" />
        </mxCell>
        <mxCell id="OHn8yyxWZ7koiiCOsBAS-5" value="Subject" style="swimlane;fontStyle=1;align=center;verticalAlign=top;childLayout=stackLayout;horizontal=1;startSize=26;horizontalStack=0;resizeParent=1;resizeParentMax=0;resizeLast=0;collapsible=1;marginBottom=0;whiteSpace=wrap;html=1;" vertex="1" parent="1">
          <mxGeometry x="50" y="240" width="160" height="130" as="geometry">
            <mxRectangle x="140" y="100" width="80" height="30" as="alternateBounds" />
          </mxGeometry>
        </mxCell>
        <mxCell id="OHn8yyxWZ7koiiCOsBAS-6" value="Subject_Id--&amp;gt;primary key" style="text;strokeColor=none;fillColor=none;align=left;verticalAlign=top;spacingLeft=4;spacingRight=4;overflow=hidden;rotatable=0;points=[[0,0.5],[1,0.5]];portConstraint=eastwest;whiteSpace=wrap;html=1;" vertex="1" parent="OHn8yyxWZ7koiiCOsBAS-5">
          <mxGeometry y="26" width="160" height="26" as="geometry" />
        </mxCell>
        <mxCell id="OHn8yyxWZ7koiiCOsBAS-7" value="" style="line;strokeWidth=1;fillColor=none;align=left;verticalAlign=middle;spacingTop=-1;spacingLeft=3;spacingRight=3;rotatable=0;labelPosition=right;points=[];portConstraint=eastwest;strokeColor=inherit;" vertex="1" parent="OHn8yyxWZ7koiiCOsBAS-5">
          <mxGeometry y="52" width="160" height="8" as="geometry" />
        </mxCell>
        <mxCell id="OHn8yyxWZ7koiiCOsBAS-8" value="Subject Name&lt;div&gt;List of registered Students&amp;nbsp; Many-to-Many --&amp;gt; Student&amp;nbsp;&lt;/div&gt;&lt;div style=&quot;text-align: center;&quot;&gt;(Enrollment)&lt;/div&gt;&lt;div&gt;&lt;br&gt;&lt;/div&gt;" style="text;strokeColor=none;fillColor=none;align=left;verticalAlign=top;spacingLeft=4;spacingRight=4;overflow=hidden;rotatable=0;points=[[0,0.5],[1,0.5]];portConstraint=eastwest;whiteSpace=wrap;html=1;" vertex="1" parent="OHn8yyxWZ7koiiCOsBAS-5">
          <mxGeometry y="60" width="160" height="70" as="geometry" />
        </mxCell>
        <mxCell id="OHn8yyxWZ7koiiCOsBAS-9" value="Exam" style="swimlane;fontStyle=1;align=center;verticalAlign=top;childLayout=stackLayout;horizontal=1;startSize=26;horizontalStack=0;resizeParent=1;resizeParentMax=0;resizeLast=0;collapsible=1;marginBottom=0;whiteSpace=wrap;html=1;" vertex="1" parent="1">
          <mxGeometry x="460" y="240" width="160" height="130" as="geometry">
            <mxRectangle x="140" y="100" width="80" height="30" as="alternateBounds" />
          </mxGeometry>
        </mxCell>
        <mxCell id="OHn8yyxWZ7koiiCOsBAS-10" value="Exam_Id--&amp;gt;primary key" style="text;strokeColor=none;fillColor=none;align=left;verticalAlign=top;spacingLeft=4;spacingRight=4;overflow=hidden;rotatable=0;points=[[0,0.5],[1,0.5]];portConstraint=eastwest;whiteSpace=wrap;html=1;" vertex="1" parent="OHn8yyxWZ7koiiCOsBAS-9">
          <mxGeometry y="26" width="160" height="26" as="geometry" />
        </mxCell>
        <mxCell id="OHn8yyxWZ7koiiCOsBAS-11" value="" style="line;strokeWidth=1;fillColor=none;align=left;verticalAlign=middle;spacingTop=-1;spacingLeft=3;spacingRight=3;rotatable=0;labelPosition=right;points=[];portConstraint=eastwest;strokeColor=inherit;" vertex="1" parent="OHn8yyxWZ7koiiCOsBAS-9">
          <mxGeometry y="52" width="160" height="8" as="geometry" />
        </mxCell>
        <mxCell id="OHn8yyxWZ7koiiCOsBAS-12" value="&lt;div&gt;Many to one --&amp;gt; subject&lt;/div&gt;&lt;div&gt;List of registered Students&amp;nbsp; Many-to-Many --&amp;gt; Student&amp;nbsp;&lt;/div&gt;&lt;div style=&quot;text-align: center;&quot;&gt;(Register)&lt;/div&gt;&lt;div&gt;&lt;br&gt;&lt;/div&gt;" style="text;strokeColor=none;fillColor=none;align=left;verticalAlign=top;spacingLeft=4;spacingRight=4;overflow=hidden;rotatable=0;points=[[0,0.5],[1,0.5]];portConstraint=eastwest;whiteSpace=wrap;html=1;" vertex="1" parent="OHn8yyxWZ7koiiCOsBAS-9">
          <mxGeometry y="60" width="160" height="70" as="geometry" />
        </mxCell>
        <mxCell id="OHn8yyxWZ7koiiCOsBAS-15" value="" style="endArrow=block;endFill=1;html=1;edgeStyle=orthogonalEdgeStyle;align=left;verticalAlign=top;rounded=0;entryX=0.5;entryY=0;entryDx=0;entryDy=0;exitX=0;exitY=0.5;exitDx=0;exitDy=0;flowAnimation=1;" edge="1" parent="1" source="OHn8yyxWZ7koiiCOsBAS-2" target="OHn8yyxWZ7koiiCOsBAS-5">
          <mxGeometry x="-1" relative="1" as="geometry">
            <mxPoint x="120" y="70" as="sourcePoint" />
            <mxPoint x="280" y="70" as="targetPoint" />
          </mxGeometry>
        </mxCell>
        <mxCell id="OHn8yyxWZ7koiiCOsBAS-16" value="1.n" style="edgeLabel;resizable=0;html=1;align=left;verticalAlign=bottom;" connectable="0" vertex="1" parent="OHn8yyxWZ7koiiCOsBAS-15">
          <mxGeometry x="-1" relative="1" as="geometry">
            <mxPoint x="-30" as="offset" />
          </mxGeometry>
        </mxCell>
        <mxCell id="OHn8yyxWZ7koiiCOsBAS-17" value="n.n" style="edgeLabel;resizable=0;html=1;align=left;verticalAlign=bottom;" connectable="0" vertex="1" parent="OHn8yyxWZ7koiiCOsBAS-15">
          <mxGeometry x="-1" relative="1" as="geometry">
            <mxPoint x="-130" y="61" as="offset" />
          </mxGeometry>
        </mxCell>
        <mxCell id="OHn8yyxWZ7koiiCOsBAS-22" value="1.n" style="edgeLabel;resizable=0;html=1;align=left;verticalAlign=bottom;" connectable="0" vertex="1" parent="OHn8yyxWZ7koiiCOsBAS-15">
          <mxGeometry x="-1" relative="1" as="geometry">
            <mxPoint x="164" as="offset" />
          </mxGeometry>
        </mxCell>
        <mxCell id="OHn8yyxWZ7koiiCOsBAS-23" value="1.n" style="edgeLabel;resizable=0;html=1;align=left;verticalAlign=bottom;" connectable="0" vertex="1" parent="OHn8yyxWZ7koiiCOsBAS-15">
          <mxGeometry x="-1" relative="1" as="geometry">
            <mxPoint x="574" y="11" as="offset" />
          </mxGeometry>
        </mxCell>
        <mxCell id="OHn8yyxWZ7koiiCOsBAS-24" value="n.n" style="edgeLabel;resizable=0;html=1;align=left;verticalAlign=bottom;" connectable="0" vertex="1" parent="OHn8yyxWZ7koiiCOsBAS-15">
          <mxGeometry x="-1" relative="1" as="geometry">
            <mxPoint x="280" y="72" as="offset" />
          </mxGeometry>
        </mxCell>
        <mxCell id="OHn8yyxWZ7koiiCOsBAS-18" value="" style="endArrow=block;endFill=1;html=1;edgeStyle=orthogonalEdgeStyle;align=left;verticalAlign=top;rounded=0;entryX=0.5;entryY=0;entryDx=0;entryDy=0;exitX=1;exitY=0.5;exitDx=0;exitDy=0;flowAnimation=1;" edge="1" parent="1" source="OHn8yyxWZ7koiiCOsBAS-2" target="OHn8yyxWZ7koiiCOsBAS-9">
          <mxGeometry x="-1" relative="1" as="geometry">
            <mxPoint x="630" y="89" as="sourcePoint" />
            <mxPoint x="520" y="160" as="targetPoint" />
          </mxGeometry>
        </mxCell>
        <mxCell id="OHn8yyxWZ7koiiCOsBAS-19" value="1.n" style="edgeLabel;resizable=0;html=1;align=left;verticalAlign=bottom;" connectable="0" vertex="1" parent="OHn8yyxWZ7koiiCOsBAS-18">
          <mxGeometry x="-1" relative="1" as="geometry">
            <mxPoint x="-30" as="offset" />
          </mxGeometry>
        </mxCell>
        <mxCell id="OHn8yyxWZ7koiiCOsBAS-25" value="" style="endArrow=block;endFill=1;html=1;edgeStyle=orthogonalEdgeStyle;align=left;verticalAlign=top;rounded=0;entryX=0;entryY=0.5;entryDx=0;entryDy=0;exitX=1;exitY=0.5;exitDx=0;exitDy=0;flowAnimation=1;" edge="1" parent="1" source="OHn8yyxWZ7koiiCOsBAS-8" target="OHn8yyxWZ7koiiCOsBAS-12">
          <mxGeometry x="-1" relative="1" as="geometry">
            <mxPoint x="240" y="320" as="sourcePoint" />
            <mxPoint x="360" y="401" as="targetPoint" />
          </mxGeometry>
        </mxCell>
        <mxCell id="OHn8yyxWZ7koiiCOsBAS-26" value="1.n" style="edgeLabel;resizable=0;html=1;align=left;verticalAlign=bottom;" connectable="0" vertex="1" parent="OHn8yyxWZ7koiiCOsBAS-25">
          <mxGeometry x="-1" relative="1" as="geometry">
            <mxPoint x="-30" as="offset" />
          </mxGeometry>
        </mxCell>
      </root>
    </mxGraphModel>
  </diagram>
</mxfile>
